<?xml version="1.0" standalone="no"?>
<!DOCTYPE svg PUBLIC "-//W3C//DTD SVG 20010904//EN"
 "http://www.w3.org/TR/2001/REC-SVG-20010904/DTD/svg10.dtd">
<svg version="1.0" xmlns="http://www.w3.org/2000/svg"
 width="512.000000pt" height="512.000000pt" viewBox="0 0 512.000000 512.000000"
 preserveAspectRatio="xMidYMid meet">

<g transform="translate(0.000000,512.000000) scale(0.100000,-0.100000)"
fill="#000000" stroke="none">
<path d="M1965 5113 c-633 -29 -1076 -69 -1213 -109 -251 -73 -458 -245 -576
-481 -58 -117 -83 -220 -105 -445 -52 -512 -71 -922 -71 -1518 0 -593 18 -991
70 -1516 28 -284 71 -419 185 -579 49 -68 159 -177 225 -222 74 -50 184 -101
272 -127 107 -31 404 -62 923 -97 252 -17 1223 -23 1526 -10 545 24 1034 69
1165 107 309 89 549 329 638 638 27 91 55 334 81 701 27 382 35 635 35 1105 0
596 -19 1006 -71 1518 -27 275 -69 410 -172 562 -113 166 -308 306 -511 364
-126 37 -607 82 -1131 106 -192 9 -1104 11 -1270 3z m1375 -983 c157 -11 251
-34 365 -91 211 -105 367 -302 425 -539 25 -102 39 -421 39 -920 0 -514 -14
-860 -38 -952 -70 -270 -220 -455 -454 -563 -138 -64 -207 -75 -552 -86 -341
-12 -1191 -5 -1373 11 -132 12 -268 52 -356 105 -32 19 -62 35 -66 35 -5 0
-48 39 -97 88 -133 131 -210 280 -244 467 -39 217 -41 253 -37 935 4 571 7
677 21 750 84 423 311 673 677 747 148 29 1304 38 1690 13z"/>
<path d="M1793 3850 c-270 -30 -444 -175 -516 -429 -21 -75 -21 -88 -22 -846
0 -698 2 -777 18 -850 40 -179 138 -310 290 -385 154 -75 145 -75 1007 -75
862 0 842 -1 998 76 151 74 247 200 289 376 17 72 18 138 18 843 0 705 -1 771
-18 843 -52 222 -193 368 -414 429 -77 21 -92 22 -828 24 -412 1 -783 -2 -822
-6z m1739 -270 c109 -74 118 -229 18 -313 -105 -89 -274 -32 -310 104 -23 84
24 183 104 220 56 27 141 22 188 -11z m-772 -226 c375 -96 638 -450 616 -829
-13 -231 -96 -408 -266 -569 -172 -161 -426 -241 -658 -207 -320 47 -571 256
-673 561 -72 216 -42 476 78 673 47 78 161 198 237 250 86 58 198 107 296 128
102 23 268 19 370 -7z"/>
<path d="M2455 3088 c-83 -15 -185 -71 -264 -144 -225 -208 -225 -556 0 -769
82 -77 160 -118 270 -141 352 -74 685 244 631 604 -46 301 -337 507 -637 450z"/>
</g>
</svg>
