<svg version="1.0" xmlns="http://www.w3.org/2000/svg" width="50px" height="50px" viewBox="0 0 512.000000 512.000000" preserveAspectRatio="xMidYMid meet">
    <g transform="translate(0.000000,512.000000) scale(0.100000,-0.100000)" fill="#2A2B2A" stroke="none">
        <path d="M2185 5109 c-474 -10 -1165 -59 -1349 -95 -339 -66 -626 -332 -715
            -664 -33 -120 -77 -612 -101 -1110 -14 -289 -14 -1071 0 -1355 25 -514 68
            -994 101 -1115 66 -247 252 -472 484 -585 127 -62 212 -82 435 -105 844 -85
            1763 -97 2640 -34 335 24 588 52 670 74 250 69 470 252 585 485 61 124 81 209
            104 435 85 826 97 1759 36 2630 -24 330 -53 597 -76 680 -82 305 -345 568
            -649 649 -155 42 -822 96 -1309 106 -135 3 -309 7 -386 8 -77 2 -288 0 -470
            -4z m1233 -1161 l2 -288 -197 0 c-109 0 -214 -5 -234 -10 -19 -5 -48 -24 -65
            -41 l-29 -30 -3 -175 -3 -174 267 0 267 0 -7 -92 c-10 -128 -44 -504 -51 -555
            l-6 -43 -250 0 -249 0 0 -845 0 -845 -340 0 -340 0 0 845 0 845 -167 2 -168 3
            -3 343 -2 342 163 0 164 0 6 218 c4 178 9 231 27 297 58 216 194 376 379 446
            117 44 159 48 506 46 l330 -2 3 -287z"></path>
    </g>
</svg>