<?xml version="1.0" standalone="no"?>
<!DOCTYPE svg PUBLIC "-//W3C//DTD SVG 20010904//EN"
 "http://www.w3.org/TR/2001/REC-SVG-20010904/DTD/svg10.dtd">
<svg version="1.0" xmlns="http://www.w3.org/2000/svg"
 width="512.000000pt" height="512.000000pt" viewBox="0 0 512.000000 512.000000"
 preserveAspectRatio="xMidYMid meet">

<g transform="translate(0.000000,512.000000) scale(0.100000,-0.100000)"
fill="#000000" stroke="none">
<path d="M2195 5114 c-604 -18 -1281 -72 -1432 -115 -311 -87 -557 -334 -644
-644 -30 -109 -72 -549 -100 -1065 -16 -277 -16 -1184 -1 -1455 31 -534 71
-961 101 -1070 92 -331 373 -593 704 -660 124 -25 537 -61 982 -87 283 -16
1233 -16 1510 0 458 27 872 63 987 88 352 73 644 369 712 720 26 132 62 544
88 994 16 279 15 1159 -1 1460 -25 476 -68 953 -96 1059 -72 279 -287 523
-555 630 -126 50 -282 72 -750 106 -441 32 -1141 50 -1505 39z m79 -1725 c160
-84 361 -188 446 -232 85 -45 241 -126 346 -181 105 -56 295 -155 422 -221
127 -66 232 -122 232 -125 0 -5 -176 -98 -505 -268 -99 -51 -263 -136 -365
-189 -200 -103 -354 -183 -661 -342 -108 -55 -202 -101 -208 -101 -8 0 -11
245 -11 905 0 498 3 905 7 905 3 0 137 -68 297 -151z"/>
</g>
</svg>
